<svg width="24" height="25" viewBox="0 0 24 25" fill="none" xmlns="http://www.w3.org/2000/svg">
<g clip-path="url(#clip0_56_85)">
<path d="M9.87812 13.0463C10.4417 13.6076 11.2047 13.9228 12.0001 13.9228C12.7955 13.9228 13.5585 13.6076 14.1221 13.0463L23.7811 3.38631C23.5587 2.83028 23.1751 2.35353 22.6794 2.01742C22.1838 1.6813 21.599 1.5012 21.0001 1.50031H3.00012C2.40128 1.5012 1.81641 1.6813 1.32079 2.01742C0.825171 2.35353 0.441485 2.83028 0.219116 3.38631L9.87812 13.0463Z" fill="#f6ff46"/>
<path d="M15.536 14.4603C14.5974 15.3966 13.3257 15.9223 12 15.9223C10.6743 15.9223 9.40263 15.3966 8.464 14.4603L0 6.00031V23.5003H24V6.00031L15.536 14.4603Z" fill="#f6ff46"/>
</g>
<defs>
<clipPath id="clip0_56_85">
<rect width="24" height="24" fill="white" transform="translate(0 0.5)"/>
</clipPath>
</defs>
</svg>
