<svg width="32" height="32" viewBox="0 0 32 32" fill="none" xmlns="http://www.w3.org/2000/svg">
<g clip-path="url(#clip0_56_116)">
<path d="M18.6669 9.33333V0.613333C19.9003 1.07911 21.0206 1.80175 21.9535 2.73333L26.5989 7.38133C27.5315 8.31317 28.2547 9.43319 28.7202 10.6667H20.0002C19.6466 10.6667 19.3074 10.5262 19.0574 10.2761C18.8073 10.0261 18.6669 9.68696 18.6669 9.33333ZM29.3335 13.98V25.3333C29.3314 27.1008 28.6284 28.7953 27.3786 30.045C26.1288 31.2948 24.4343 31.9979 22.6669 32H9.33354C7.56608 31.9979 5.87161 31.2948 4.62183 30.045C3.37205 28.7953 2.66899 27.1008 2.66687 25.3333V6.66667C2.66899 4.89921 3.37205 3.20474 4.62183 1.95496C5.87161 0.705176 7.56608 0.00211714 9.33354 0L15.3535 0C15.5709 0 15.7855 0.0173333 16.0002 0.032V9.33333C16.0002 10.3942 16.4216 11.4116 17.1718 12.1618C17.9219 12.9119 18.9393 13.3333 20.0002 13.3333H29.3015C29.3162 13.548 29.3335 13.7627 29.3335 13.98ZM18.6669 25.3333C18.6669 24.9797 18.5264 24.6406 18.2763 24.3905C18.0263 24.1405 17.6872 24 17.3335 24H10.6669C10.3132 24 9.97411 24.1405 9.72406 24.3905C9.47401 24.6406 9.33354 24.9797 9.33354 25.3333C9.33354 25.687 9.47401 26.0261 9.72406 26.2761C9.97411 26.5262 10.3132 26.6667 10.6669 26.6667H17.3335C17.6872 26.6667 18.0263 26.5262 18.2763 26.2761C18.5264 26.0261 18.6669 25.687 18.6669 25.3333ZM22.6669 20C22.6669 19.6464 22.5264 19.3072 22.2763 19.0572C22.0263 18.8071 21.6872 18.6667 21.3335 18.6667H10.6669C10.3132 18.6667 9.97411 18.8071 9.72406 19.0572C9.47401 19.3072 9.33354 19.6464 9.33354 20C9.33354 20.3536 9.47401 20.6928 9.72406 20.9428C9.97411 21.1929 10.3132 21.3333 10.6669 21.3333H21.3335C21.6872 21.3333 22.0263 21.1929 22.2763 20.9428C22.5264 20.6928 22.6669 20.3536 22.6669 20Z" fill="white"/>
</g>
<defs>
<clipPath id="clip0_56_116">
<rect width="32" height="32" fill="none"/>
</clipPath>
</defs>
</svg>
