<svg width="40" height="40" viewBox="0 0 40 40" fill="none" xmlns="http://www.w3.org/2000/svg">
<g clip-path="url(#clip0_66_125)">
<rect width="40" height="40" fill="#011435"/>
<path d="M31.6669 13.3333V11.78C31.6647 9.54048 30.7741 7.39332 29.1905 5.80974C27.6069 4.22616 25.4598 3.33554 23.2203 3.33333H21.6669V0H18.3336V3.33333H16.7803C14.7758 3.33547 12.8374 4.05039 11.3116 5.3503C9.78575 6.6502 8.77194 8.45037 8.45134 10.429C8.13075 12.4077 8.52427 14.4359 9.56157 16.1511C10.5989 17.8663 12.2123 19.1567 14.1136 19.7917L18.3336 21.2V33.3333H16.7803C15.4245 33.332 14.1247 32.7929 13.166 31.8342C12.2074 30.8756 11.6682 29.5757 11.6669 28.22V26.6667H8.33359V28.22C8.33579 30.4595 9.22642 32.6067 10.81 34.1903C12.3936 35.7738 14.5407 36.6645 16.7803 36.6667H18.3336V40H21.6669V36.6667H23.2203C25.2247 36.6645 27.1631 35.9496 28.6889 34.6497C30.2148 33.3498 31.2286 31.5496 31.5492 29.571C31.8698 27.5923 31.4762 25.5641 30.4389 23.8489C29.4016 22.1337 27.7882 20.8433 25.8869 20.2083L21.6669 18.8V6.66667H23.2203C24.576 6.66799 25.8758 7.20714 26.8345 8.16579C27.7931 9.12444 28.3323 10.4243 28.3336 11.78V13.3333H31.6669ZM24.8336 23.3683C25.9857 23.7518 26.9637 24.5327 27.5927 25.5714C28.2217 26.61 28.4605 27.8386 28.2664 29.0372C28.0724 30.2358 27.4581 31.3263 26.5335 32.1134C25.609 32.9006 24.4345 33.333 23.2203 33.3333H21.6669V22.3117L24.8336 23.3683ZM18.3336 17.6883L15.1669 16.6317C14.0148 16.2482 13.0368 15.4673 12.4078 14.4286C11.7789 13.39 11.54 12.1614 11.7341 10.9628C11.9281 9.76416 12.5424 8.6737 13.467 7.88657C14.3915 7.09944 15.566 6.66701 16.7803 6.66667H18.3336V17.6883Z" fill="white"/>
</g>
<defs>
<clipPath id="clip0_66_125">
<rect width="40" height="40" fill="white"/>
</clipPath>
</defs>
</svg>
