<svg width="20" height="25" viewBox="0 0 20 25" fill="none" xmlns="http://www.w3.org/2000/svg">
<path d="M17 8.924V7.49998C17 3.63402 13.866 0.5 10 0.5C6.134 0.5 3.00003 3.63402 3.00003 7.49998V8.924C1.18006 9.7183 0.00265552 11.5143 3.05176e-05 13.5V19.5C0.00331177 22.26 2.23995 24.4967 5 24.5H15C17.76 24.4967 19.9967 22.26 20 19.5V13.5C19.9974 11.5143 18.82 9.7183 17 8.924ZM11 17.5C11 18.0523 10.5523 18.5 10 18.5C9.44773 18.5 9.00003 18.0523 9.00003 17.5V15.5C9.00003 14.9477 9.44773 14.5 10 14.5C10.5523 14.5 11 14.9477 11 15.5V17.5ZM15 8.50002H5V7.50003C5 4.73863 7.23856 2.50002 10 2.50002C12.7615 2.50002 15 4.73858 15 7.50003V8.50002Z" fill="#f6ff46"/>
</svg>
