<svg width="38" height="34" viewBox="0 0 38 34" fill="none" xmlns="http://www.w3.org/2000/svg">
<g clip-path="url(#clip0_16_64)">
<rect width="38" height="34" fill="#011435"/>
<path d="M11.0836 34.0009C12.8325 34.0009 14.2503 32.7324 14.2503 31.1676C14.2503 29.6028 12.8325 28.3342 11.0836 28.3342C9.33469 28.3342 7.91693 29.6028 7.91693 31.1676C7.91693 32.7324 9.33469 34.0009 11.0836 34.0009Z" fill="white"/>
<path d="M26.9167 34.0009C28.6656 34.0009 30.0833 32.7324 30.0833 31.1676C30.0833 29.6028 28.6656 28.3342 26.9167 28.3342C25.1678 28.3342 23.75 29.6028 23.75 31.1676C23.75 32.7324 25.1678 34.0009 26.9167 34.0009Z" fill="white"/>
<path d="M36.1206 13.5759C34.6785 15.3286 32.54 16.5196 30.1457 16.9035C27.7514 17.2874 25.2837 16.8349 23.2512 15.6393C21.2186 14.4437 19.7761 12.596 19.2209 10.4771C18.6656 8.35814 19.0399 6.12935 20.2667 4.25H6.7165L6.65 3.75133C6.51355 2.71801 5.95818 1.76538 5.08913 1.07398C4.22008 0.382577 3.09775 0.000443185 1.93483 0L0 0V2.83333H1.93483C2.32264 2.83338 2.69695 2.96077 2.98676 3.19135C3.27656 3.42192 3.46171 3.73964 3.50708 4.08425L6.01667 23.1639C6.15276 24.1975 6.70797 25.1505 7.57706 25.8422C8.44614 26.5338 9.56867 26.9162 10.7318 26.9167H31.6667V24.0833H10.7318C10.3438 24.0832 9.96927 23.9557 9.67943 23.7248C9.38959 23.4939 9.2046 23.1759 9.15958 22.831L8.95217 21.25H34.5737L36.1206 13.5759Z" fill="white"/>
<path d="M33.25 7.08333H30.0833V4.25H26.9167V7.08333H23.75V9.91667H26.9167V12.75H30.0833V9.91667H33.25V7.08333Z" fill="white"/>
</g>
<defs>
<clipPath id="clip0_16_64">
<rect width="38" height="34" fill="white"/>
</clipPath>
</defs>
</svg>
