<svg width="40" height="40" viewBox="0 0 40 40" fill="none" xmlns="http://www.w3.org/2000/svg">
<g clip-path="url(#clip0_66_137)">
<path d="M35.0003 36.6667H11.4736C12.7601 34.6866 13.4092 32.3601 13.3336 30V23.3333H25.0003C25.4423 23.3333 25.8662 23.1577 26.1788 22.8452C26.4913 22.5326 26.6669 22.1087 26.6669 21.6667C26.6669 21.2246 26.4913 20.8007 26.1788 20.4882C25.8662 20.1756 25.4423 20 25.0003 20H13.3336V13.3333C13.3336 10.6812 14.3872 8.13763 16.2625 6.26227C18.1379 4.3869 20.6814 3.33333 23.3336 3.33333C25.9858 3.33333 28.5293 4.3869 30.4047 6.26227C32.28 8.13763 33.3336 10.6812 33.3336 13.3333C33.3336 13.7754 33.5092 14.1993 33.8217 14.5118C34.1343 14.8244 34.5582 15 35.0003 15C35.4423 15 35.8662 14.8244 36.1788 14.5118C36.4913 14.1993 36.6669 13.7754 36.6669 13.3333C36.6669 9.79711 35.2622 6.40573 32.7617 3.90524C30.2612 1.40476 26.8698 0 23.3336 0C19.7974 0 16.406 1.40476 13.9055 3.90524C11.405 6.40573 10.0003 9.79711 10.0003 13.3333V20H6.66692C6.22489 20 5.80097 20.1756 5.48841 20.4882C5.17585 20.8007 5.00025 21.2246 5.00025 21.6667C5.00025 22.1087 5.17585 22.5326 5.48841 22.8452C5.80097 23.1577 6.22489 23.3333 6.66692 23.3333H10.0003V30C10.0003 32 9.51359 36.6667 5.00025 36.6667C4.55823 36.6667 4.1343 36.8423 3.82174 37.1548C3.50918 37.4674 3.33359 37.8913 3.33359 38.3333C3.33359 38.7754 3.50918 39.1993 3.82174 39.5118C4.1343 39.8244 4.55823 40 5.00025 40H35.0003C35.4423 40 35.8662 39.8244 36.1788 39.5118C36.4913 39.1993 36.6669 38.7754 36.6669 38.3333C36.6669 37.8913 36.4913 37.4674 36.1788 37.1548C35.8662 36.8423 35.4423 36.6667 35.0003 36.6667Z" fill="white"/>
</g>
<defs>
<clipPath id="clip0_66_137">
<rect width="40" height="40" fill="white"/>
</clipPath>
</defs>
</svg>
